<svg width="521" height="179" viewBox="0 0 521 179" fill="none" xmlns="http://www.w3.org/2000/svg">
<path d="M96.6194 64.1081C96.3158 69.1181 95.253 73.9763 93.4312 78.6827C91.6853 83.3131 89.0664 87.4881 85.5746 91.2077C82.1587 94.8513 77.7939 97.7359 72.4802 99.8614C67.1666 101.987 60.8661 103.05 53.5788 103.05C46.9747 103.05 40.7122 102.101 34.7912 100.203C28.9462 98.3052 23.7464 95.4966 19.1919 91.777C14.7132 87.9815 11.1834 83.3131 8.60252 77.7717C6.0216 72.1544 4.73115 65.6642 4.73115 58.301C4.73115 50.9378 6.0216 44.4855 8.60252 38.9441C11.1834 33.3268 14.7891 28.6584 19.4196 24.9388C24.0501 21.1434 29.4017 18.2968 35.4744 16.399C41.5472 14.5013 48.1133 13.5524 55.1729 13.5524C65.0411 13.5524 73.4671 15.0327 80.4507 17.9931C87.5103 20.8777 93.1655 24.8629 97.4165 29.9488C101.743 35.0348 104.59 40.9177 105.956 47.5978H76.4655C75.7823 45.4723 74.4159 43.6884 72.3664 42.2462C70.3927 40.728 67.9636 39.5893 65.0791 38.8302C62.1945 37.9952 58.9684 37.5777 55.4006 37.5777C50.9979 37.5777 47.2024 38.3368 44.0142 39.855C40.826 41.2973 38.359 43.5366 36.6131 46.573C34.9431 49.6094 34.1081 53.5187 34.1081 58.301C34.1081 63.1592 35.0569 67.1824 36.9547 70.3706C38.9283 73.5588 41.699 75.912 45.2667 77.4301C48.9104 78.9483 53.1993 79.7074 58.1334 79.7074C62.9157 79.7074 67.1666 79.1761 70.8861 78.1133C74.6057 76.9747 77.6041 75.2667 79.8814 72.9894C82.2346 70.6363 83.6769 67.6758 84.2082 64.1081H96.6194ZM59.9552 71.9647V55.3405H106.639V101H86.2578L81.931 68.321L87.0548 71.9647H59.9552ZM167.623 103.05C157.224 103.05 148.115 101.19 140.296 97.4702C132.553 93.7507 126.519 88.5509 122.192 81.8708C117.865 75.1149 115.701 67.2583 115.701 58.301C115.701 49.3437 117.865 41.525 122.192 34.845C126.519 28.0891 132.553 22.8513 140.296 19.1318C148.115 15.4122 157.224 13.5524 167.623 13.5524C178.023 13.5524 187.094 15.4122 194.837 19.1318C202.656 22.8513 208.728 28.0891 213.055 34.845C217.382 41.525 219.545 49.3437 219.545 58.301C219.545 67.2583 217.382 75.1149 213.055 81.8708C208.728 88.5509 202.656 93.7507 194.837 97.4702C187.094 101.19 178.023 103.05 167.623 103.05ZM167.623 76.8608C172.254 76.8608 176.239 76.1397 179.579 74.6974C182.919 73.1792 185.462 71.0538 187.208 68.321C189.03 65.5124 189.941 62.1724 189.941 58.301C189.941 54.4296 189.03 51.1276 187.208 48.3948C185.462 45.5862 182.919 43.4607 179.579 42.0184C176.239 40.5002 172.254 39.7412 167.623 39.7412C162.993 39.7412 159.008 40.5002 155.668 42.0184C152.328 43.4607 149.747 45.5862 147.925 48.3948C146.179 51.1276 145.306 54.4296 145.306 58.301C145.306 62.1724 146.179 65.5124 147.925 68.321C149.747 71.0538 152.328 73.1792 155.668 74.6974C159.008 76.1397 162.993 76.8608 167.623 76.8608ZM229.974 101V15.602H259.123V78.1133L251.722 71.8508L294.193 15.602H324.936L256.618 101H229.974ZM270.965 61.7169L292.599 44.7512L326.075 101H292.827L270.965 61.7169ZM360.067 61.8308C360.067 64.9431 360.598 67.6378 361.661 69.9151C362.8 72.1165 364.508 73.8245 366.785 75.039C369.062 76.2536 371.985 76.8608 375.552 76.8608C379.196 76.8608 382.157 76.2915 384.434 75.1529C386.711 73.9383 388.381 72.1924 389.444 69.9151C390.507 67.6378 391.038 64.9431 391.038 61.8308V15.602H420.415V63.4249C420.415 71.3954 418.555 78.3411 414.836 84.262C411.116 90.1829 405.878 94.8134 399.122 98.1534C392.442 101.418 384.586 103.05 375.552 103.05C366.595 103.05 358.739 101.418 351.983 98.1534C345.303 94.8134 340.065 90.1829 336.269 84.262C332.55 78.3411 330.69 71.3954 330.69 63.4249V15.602H360.067V61.8308ZM462.393 15.602V88.0195L449.185 74.8113H512.721V101H433.016V15.602H462.393Z" fill="white"/>
<path d="M41.7906 145.402L43.1422 142.293C46.9716 142.428 50.1703 143.036 52.7383 144.118C55.3062 145.199 57.2209 146.708 58.4824 148.645C59.7889 150.538 60.4421 152.813 60.4421 155.471C60.4421 158.219 59.8114 160.697 58.55 162.904C57.3336 165.112 55.4639 166.846 52.941 168.108C50.4181 169.369 47.2645 170 43.4801 170H3.67675L7.52868 143.983L3.67675 119.317H42.061C46.7464 119.317 50.4181 120.42 53.0761 122.628C55.7342 124.79 57.0632 127.809 57.0632 131.683C57.0632 133.891 56.5677 135.963 55.5765 137.901C54.5854 139.838 52.9635 141.482 50.7109 142.834C48.5034 144.14 45.53 144.996 41.7906 145.402ZM20.7064 166.216L14.0837 158.444H37.9387C39.4254 158.444 40.5968 158.061 41.4528 157.295C42.3087 156.484 42.7367 155.403 42.7367 154.052C42.7367 152.835 42.3087 151.799 41.4528 150.943C40.6418 150.087 39.4254 149.659 37.8036 149.659H17.8005V138.306H35.2356C36.4069 138.306 37.3756 137.946 38.1414 137.225C38.9524 136.504 39.3578 135.58 39.3578 134.454C39.3578 133.418 38.9974 132.562 38.2766 131.886C37.5558 131.21 36.5421 130.872 35.2356 130.872H14.1513L20.7064 123.101L24.1528 143.983L20.7064 166.216ZM137.834 119.317V162.296L129.995 154.457H167.703V170H120.399V119.317H137.834ZM254.332 171.216C248.16 171.216 242.754 170.113 238.113 167.905C233.518 165.698 229.936 162.611 227.368 158.647C224.8 154.637 223.516 149.974 223.516 144.658C223.516 139.342 224.8 134.702 227.368 130.737C229.936 126.728 233.518 123.619 238.113 121.412C242.754 119.204 248.16 118.1 254.332 118.1C260.504 118.1 265.888 119.204 270.483 121.412C275.123 123.619 278.728 126.728 281.295 130.737C283.863 134.702 285.147 139.342 285.147 144.658C285.147 149.974 283.863 154.637 281.295 158.647C278.728 162.611 275.123 165.698 270.483 167.905C265.888 170.113 260.504 171.216 254.332 171.216ZM254.332 155.673C257.08 155.673 259.445 155.246 261.428 154.39C263.41 153.488 264.919 152.227 265.955 150.605C267.037 148.938 267.577 146.956 267.577 144.658C267.577 142.361 267.037 140.401 265.955 138.779C264.919 137.112 263.41 135.851 261.428 134.995C259.445 134.094 257.08 133.643 254.332 133.643C251.584 133.643 249.219 134.094 247.236 134.995C245.254 135.851 243.722 137.112 242.641 138.779C241.605 140.401 241.087 142.361 241.087 144.658C241.087 146.956 241.605 148.938 242.641 150.605C243.722 152.227 245.254 153.488 247.236 154.39C249.219 155.246 251.584 155.673 254.332 155.673ZM398.11 148.105C397.929 151.078 397.299 153.962 396.217 156.755C395.181 159.503 393.627 161.981 391.555 164.188C389.527 166.351 386.937 168.063 383.783 169.324C380.629 170.586 376.89 171.216 372.565 171.216C368.646 171.216 364.929 170.653 361.415 169.527C357.946 168.401 354.86 166.734 352.157 164.526C349.499 162.274 347.404 159.503 345.872 156.214C344.34 152.88 343.574 149.028 343.574 144.658C343.574 140.288 344.34 136.459 345.872 133.17C347.404 129.836 349.544 127.066 352.292 124.858C355.04 122.605 358.216 120.916 361.82 119.79C365.424 118.663 369.321 118.1 373.511 118.1C379.368 118.1 384.369 118.979 388.514 120.736C392.703 122.448 396.06 124.813 398.583 127.831C401.151 130.85 402.84 134.341 403.651 138.306H386.148C385.743 137.045 384.932 135.986 383.715 135.13C382.544 134.229 381.102 133.553 379.39 133.103C377.679 132.607 375.764 132.359 373.646 132.359C371.033 132.359 368.781 132.81 366.889 133.711C364.996 134.567 363.532 135.896 362.496 137.698C361.505 139.5 361.009 141.82 361.009 144.658C361.009 147.542 361.572 149.929 362.699 151.822C363.87 153.714 365.515 155.11 367.632 156.011C369.794 156.912 372.34 157.363 375.268 157.363C378.107 157.363 380.629 157.048 382.837 156.417C385.045 155.741 386.824 154.727 388.176 153.376C389.572 151.979 390.428 150.222 390.744 148.105H398.11ZM376.349 152.768V142.901H404.056V170H391.96L389.392 150.605L392.433 152.768H376.349ZM463.7 153.308H481.405C481.585 154.299 482.103 155.155 482.959 155.876C483.815 156.552 484.987 157.093 486.473 157.498C487.96 157.859 489.74 158.039 491.812 158.039C494.515 158.039 496.61 157.768 498.097 157.228C499.629 156.687 500.394 155.809 500.394 154.592C500.394 153.781 499.966 153.106 499.11 152.565C498.254 151.979 496.497 151.596 493.839 151.416L485.46 150.875C477.846 150.38 472.35 148.758 468.971 146.01C465.592 143.262 463.902 139.635 463.902 135.13C463.902 131.345 464.984 128.192 467.146 125.669C469.309 123.146 472.327 121.254 476.202 119.992C480.121 118.731 484.694 118.1 489.92 118.1C495.011 118.1 499.516 118.821 503.435 120.263C507.4 121.659 510.531 123.642 512.829 126.21C515.171 128.778 516.455 131.773 516.681 135.197H498.975C498.84 134.386 498.39 133.688 497.624 133.103C496.903 132.517 495.867 132.066 494.515 131.751C493.164 131.436 491.519 131.278 489.582 131.278C487.104 131.278 485.144 131.526 483.703 132.021C482.306 132.517 481.608 133.328 481.608 134.454C481.608 135.22 482.013 135.873 482.824 136.414C483.68 136.954 485.302 137.315 487.69 137.495L497.151 138.103C502.106 138.419 506.116 139.162 509.18 140.333C512.243 141.46 514.473 143.036 515.87 145.064C517.311 147.091 518.032 149.591 518.032 152.565C518.032 156.304 516.928 159.57 514.721 162.364C512.513 165.157 509.405 167.342 505.395 168.919C501.431 170.451 496.79 171.216 491.474 171.216C485.978 171.216 481.157 170.473 477.013 168.986C472.868 167.5 469.624 165.405 467.281 162.702C464.984 159.998 463.79 156.867 463.7 153.308Z" fill="#45FF6E"/>
</svg>
