<svg width="515" height="231" viewBox="0 0 515 231" fill="none" xmlns="http://www.w3.org/2000/svg">
<path d="M95.6458 64.1081C95.3421 69.1181 94.2794 73.9763 92.4576 78.6827C90.7117 83.3131 88.0928 87.4881 84.601 91.2077C81.185 94.8513 76.8203 97.7359 71.5066 99.8614C66.193 101.987 59.8925 103.05 52.6052 103.05C46.0011 103.05 39.7385 102.101 33.8176 100.203C27.9726 98.3052 22.7728 95.4966 18.2182 91.777C13.7396 87.9815 10.2098 83.3131 7.62889 77.7717C5.04797 72.1544 3.75751 65.6642 3.75751 58.301C3.75751 50.9378 5.04797 44.4855 7.62889 38.9441C10.2098 33.3268 13.8155 28.6584 18.446 24.9388C23.0764 21.1434 28.4281 18.2968 34.5008 16.399C40.5735 14.5013 47.1397 13.5524 54.1993 13.5524C64.0675 13.5524 72.4934 15.0327 79.4771 17.9931C86.5367 20.8777 92.1919 24.8629 96.4428 29.9488C100.77 35.0348 103.616 40.9177 104.983 47.5978H75.4919C74.8087 45.4723 73.4423 43.6884 71.3927 42.2462C69.4191 40.728 66.99 39.5893 64.1054 38.8302C61.2209 37.9952 57.9947 37.5777 54.427 37.5777C50.0243 37.5777 46.2288 38.3368 43.0406 39.855C39.8524 41.2973 37.3854 43.5366 35.6394 46.573C33.9694 49.6094 33.1344 53.5187 33.1344 58.301C33.1344 63.1592 34.0833 67.1824 35.981 70.3706C37.9547 73.5588 40.7254 75.912 44.2931 77.4301C47.9368 78.9483 52.2256 79.7074 57.1597 79.7074C61.942 79.7074 66.193 79.1761 69.9125 78.1133C73.6321 76.9747 76.6305 75.2667 78.9078 72.9894C81.261 70.6363 82.7032 67.6758 83.2346 64.1081H95.6458ZM58.9816 71.9647V55.3405H105.666V101H85.2842L80.9573 68.321L86.0812 71.9647H58.9816ZM166.65 103.05C156.25 103.05 147.141 101.19 139.322 97.4702C131.58 93.7507 125.545 88.5509 121.218 81.8708C116.891 75.1149 114.728 67.2583 114.728 58.301C114.728 49.3437 116.891 41.525 121.218 34.845C125.545 28.0891 131.58 22.8513 139.322 19.1318C147.141 15.4122 156.25 13.5524 166.65 13.5524C177.049 13.5524 186.121 15.4122 193.863 19.1318C201.682 22.8513 207.755 28.0891 212.082 34.845C216.408 41.525 218.572 49.3437 218.572 58.301C218.572 67.2583 216.408 75.1149 212.082 81.8708C207.755 88.5509 201.682 93.7507 193.863 97.4702C186.121 101.19 177.049 103.05 166.65 103.05ZM166.65 76.8608C171.28 76.8608 175.265 76.1397 178.606 74.6974C181.946 73.1792 184.488 71.0538 186.234 68.321C188.056 65.5124 188.967 62.1724 188.967 58.301C188.967 54.4296 188.056 51.1276 186.234 48.3948C184.488 45.5862 181.946 43.4607 178.606 42.0184C175.265 40.5002 171.28 39.7412 166.65 39.7412C162.019 39.7412 158.034 40.5002 154.694 42.0184C151.354 43.4607 148.773 45.5862 146.951 48.3948C145.205 51.1276 144.332 54.4296 144.332 58.301C144.332 62.1724 145.205 65.5124 146.951 68.321C148.773 71.0538 151.354 73.1792 154.694 74.6974C158.034 76.1397 162.019 76.8608 166.65 76.8608ZM229 101V15.602H258.149V78.1133L250.748 71.8508L293.219 15.602H323.963L255.644 101H229ZM269.991 61.7169L291.625 44.7512L325.101 101H291.853L269.991 61.7169ZM359.093 61.8308C359.093 64.9431 359.625 67.6378 360.687 69.9151C361.826 72.1165 363.534 73.8245 365.811 75.039C368.089 76.2536 371.011 76.8608 374.579 76.8608C378.222 76.8608 381.183 76.2915 383.46 75.1529C385.737 73.9383 387.408 72.1924 388.47 69.9151C389.533 67.6378 390.064 64.9431 390.064 61.8308V15.602H419.441V63.4249C419.441 71.3954 417.581 78.3411 413.862 84.262C410.142 90.1829 404.905 94.8134 398.149 98.1534C391.469 101.418 383.612 103.05 374.579 103.05C365.622 103.05 357.765 101.418 351.009 98.1534C344.329 94.8134 339.091 90.1829 335.296 84.262C331.576 78.3411 329.716 71.3954 329.716 63.4249V15.602H359.093V61.8308ZM461.42 15.602V88.0195L448.211 74.8113H511.748V101H432.043V15.602H461.42Z" fill="white"/>
<path d="M474 123C496.091 123 514 140.909 514 163V191C514 213.091 496.091 231 474 231H40C17.9086 231 0 213.091 0 191V163C1.03095e-06 140.909 17.9086 123 40 123H474ZM251.615 156.105C247.061 156.105 243.063 156.958 239.621 158.661C236.214 160.365 233.554 162.746 231.642 165.806C229.73 168.83 228.774 172.376 228.773 176.443C228.773 180.511 229.729 184.075 231.642 187.135C233.554 190.159 236.214 192.523 239.621 194.227C243.063 195.93 247.061 196.782 251.615 196.782C256.17 196.782 260.15 195.93 263.558 194.227C266.999 192.523 269.677 190.159 271.589 187.135C273.501 184.075 274.457 180.511 274.457 176.443C274.457 172.376 273.501 168.83 271.589 165.806C269.677 162.746 266.999 160.365 263.558 158.661C260.15 156.958 256.17 156.105 251.615 156.105ZM342.776 156.105C339.578 156.105 336.623 156.575 333.911 157.514C331.199 158.418 328.835 159.738 326.818 161.477C324.802 163.215 323.22 165.354 322.072 167.892C320.96 170.395 320.404 173.245 320.404 176.443C320.404 179.642 320.96 182.511 322.072 185.049C323.185 187.552 324.732 189.673 326.714 191.411C328.73 193.149 331.06 194.488 333.702 195.427C336.379 196.331 339.247 196.782 342.307 196.782C345.47 196.782 348.252 196.313 350.65 195.374C353.049 194.435 355.066 193.149 356.7 191.515C357.228 190.976 357.714 190.413 358.162 189.827L358.63 196H364.992V176.235H344.706V182.649H357.008C356.707 183.275 356.344 183.866 355.918 184.423C354.701 186.022 353.032 187.274 350.911 188.178C348.79 189.047 346.322 189.481 343.506 189.481C340.621 189.481 338.118 188.977 335.997 187.969C333.876 186.926 332.242 185.431 331.095 183.484C329.947 181.537 329.374 179.19 329.374 176.443C329.374 173.697 329.913 171.368 330.99 169.456C332.103 167.544 333.65 166.1 335.632 165.127C337.648 164.119 340.03 163.615 342.776 163.615C345.106 163.615 347.157 163.928 348.93 164.554C350.737 165.179 352.215 166.066 353.362 167.213C354.544 168.36 355.31 169.734 355.657 171.333H364.575C364.123 168.378 362.94 165.754 361.028 163.459C359.151 161.164 356.683 159.373 353.623 158.087C350.564 156.766 346.948 156.105 342.776 156.105ZM430.705 156.105C426.985 156.105 423.751 156.592 421.005 157.565C418.258 158.504 416.121 159.878 414.591 161.686C413.096 163.493 412.348 165.683 412.348 168.256C412.348 171.524 413.478 174.079 415.738 175.922C418.033 177.73 421.718 178.912 426.794 179.469L434.668 180.355C437.449 180.668 439.344 181.172 440.353 181.867C441.395 182.528 441.917 183.484 441.917 184.735C441.917 186.335 441.013 187.586 439.205 188.49C437.432 189.359 434.998 189.794 431.904 189.794C429.784 189.794 427.906 189.533 426.272 189.012C424.673 188.456 423.387 187.691 422.413 186.718C421.474 185.71 420.901 184.545 420.692 183.224H411.723C411.862 185.935 412.783 188.317 414.486 190.368C416.19 192.385 418.52 193.966 421.475 195.113C424.43 196.226 427.854 196.782 431.748 196.782C435.572 196.782 438.91 196.244 441.761 195.166C444.612 194.088 446.819 192.576 448.384 190.629C449.983 188.647 450.782 186.352 450.782 183.745C450.782 181.555 450.313 179.747 449.374 178.321C448.47 176.896 446.941 175.766 444.785 174.932C442.664 174.062 439.796 173.436 436.181 173.054L427.993 172.063C425.49 171.751 423.734 171.281 422.726 170.655C421.752 169.995 421.266 169.073 421.266 167.892C421.266 166.362 422.1 165.179 423.769 164.345C425.437 163.51 427.68 163.094 430.496 163.094C432.513 163.094 434.269 163.337 435.764 163.823C437.165 164.247 438.276 164.854 439.097 165.645L439.416 165.964C440.19 166.764 440.659 167.702 440.822 168.777H449.792C449.653 166.24 448.749 164.032 447.08 162.154C445.411 160.242 443.169 158.765 440.353 157.722C437.537 156.644 434.321 156.105 430.705 156.105ZM63.7637 156.888L66.7891 175.922L63.7637 196H91.1943C94.08 196 96.4794 195.53 98.3916 194.592C100.304 193.653 101.746 192.366 102.72 190.732C103.728 189.099 104.232 187.239 104.232 185.153C104.232 183.206 103.763 181.485 102.824 179.99C101.886 178.461 100.425 177.261 98.4434 176.392C97.5901 176.002 96.6403 175.691 95.5938 175.456C96.0344 175.266 96.4462 175.057 96.8271 174.827C98.5306 173.784 99.7475 172.515 100.478 171.021C101.242 169.526 101.625 167.978 101.625 166.379C101.625 163.424 100.616 161.112 98.5996 159.443C96.618 157.74 93.8197 156.888 90.2041 156.888H63.7637ZM151.857 156.888V196H186.067V188.178H160.723V156.888H151.857ZM88.2744 179.104C90.5689 179.104 92.3072 179.59 93.4893 180.563C94.6713 181.502 95.2627 182.789 95.2627 184.423C95.2627 186.022 94.7412 187.274 93.6982 188.178C92.69 189.047 91.2465 189.481 89.3691 189.481H73.1885L74.7959 179.104H88.2744ZM251.615 163.98C254.466 163.98 256.918 164.484 258.969 165.492C261.055 166.5 262.654 167.943 263.767 169.82C264.914 171.698 265.487 173.906 265.487 176.443C265.487 178.981 264.914 181.189 263.767 183.066C262.654 184.944 261.055 186.387 258.969 187.396C256.918 188.404 254.466 188.907 251.615 188.907C248.799 188.907 246.349 188.404 244.263 187.396C242.177 186.387 240.559 184.944 239.412 183.066C238.3 181.189 237.743 178.981 237.743 176.443C237.743 173.906 238.3 171.698 239.412 169.82C240.559 167.943 242.177 166.5 244.263 165.492C246.349 164.484 248.799 163.98 251.615 163.98ZM87.5967 163.406C89.2306 163.406 90.4824 163.824 91.3516 164.658C92.2205 165.458 92.6553 166.466 92.6553 167.683C92.6553 169.282 92.1337 170.534 91.0908 171.438C90.0826 172.307 88.7959 172.741 87.2314 172.741H74.7656L73.2295 163.406H87.5967Z" fill="white"/>
</svg>
